<svg width="205" height="88" viewBox="0 0 205 88" fill="none" xmlns="http://www.w3.org/2000/svg">
<path d="M198.059 35.3675L198.053 35.3641L198.046 35.3608L197.796 35.2288L197.786 35.2235L197.775 35.2184C195.73 34.2009 193.794 33.9906 192.531 33.9906C190.258 33.9906 187.064 34.5936 184.08 37.2174C183.637 36.7858 183.159 36.3906 182.648 36.0362C180.752 34.6753 178.559 33.9906 176.155 33.9906C176.072 33.9906 175.993 33.9947 175.914 34.0025L175.889 34.0011L175.878 34.0006L175.872 34.0003C175.841 33.9985 175.704 33.9906 175.629 33.9906C173.357 33.9906 170.163 34.5938 167.176 37.2177C166.733 36.786 166.255 36.3907 165.744 36.0362C163.848 34.6753 161.655 33.9906 159.251 33.9906C159.189 33.9906 159.134 33.9938 159.098 33.9962C159.05 33.9993 159.045 34 159.023 34.0011L158.992 34.0028L158.965 34.0015C158.867 33.9944 158.767 33.9906 158.676 33.9906C156.403 33.9906 153.21 34.5936 150.225 37.2174C149.782 36.7858 149.304 36.3906 148.794 36.0362C146.977 34.7326 144.888 34.0494 142.603 33.9942C141.983 30.4463 140.436 27.3449 137.994 24.7915C134.44 20.9808 129.513 18.89 124.143 18.89C121.884 18.89 116.354 19.333 110.92 23.1775C108.787 20.6821 105.594 19.2705 102.174 19.2705C102.055 19.2705 101.936 19.2722 101.818 19.2757C101.679 15.6375 100.166 12.6753 97.2811 10.5483L97.2726 10.5421L97.2641 10.536L97.1032 10.4225L97.0977 10.4186C94.3639 8.51718 91.5022 8.31556 90.3876 8.31556C87.9538 8.31556 85.6115 9.02416 83.432 10.3927L83.4255 10.3968L83.419 10.401L83.2395 10.5176L83.2336 10.5215L83.2277 10.5254C80.8942 12.0891 79.5269 13.9699 78.6891 15.7341C74.7452 9.90297 69.7067 6.6603 66.8154 5.15716L66.8151 5.15703L66.7502 5.12324L66.7416 5.11888C60.0234 1.71038 53.2964 1 48.8496 1C32.5191 1 17.589 9.51149 8.90915 23.7412C5.56145 29.2079 3.11853 35.5556 1.83735 42.1113L1.83725 42.1112L1.83477 42.125L1.81311 42.2446L1.81311 42.2446L1.81257 42.2477C-1.31992 59.8625 4.73934 75.3601 17.9038 82.4619C23.3739 85.4834 29.7254 87 36.7571 87C49.0935 87 60.8936 81.8911 69.997 72.6443L69.9971 72.6443L70.0063 72.6348C71.1882 71.4019 72.2969 70.1149 73.3667 68.7405C75.5032 70.9687 78.4924 72.2247 81.6647 72.2247H126.507C127.292 72.2247 128.077 72.1465 128.851 71.9942C128.729 72.408 128.631 72.8199 128.558 73.2313C127.64 78.3939 130.325 83.5247 135.107 85.7212L135.129 85.7314L135.152 85.7404L135.786 85.9951L135.807 86.0034L135.828 86.0108C136.698 86.3162 138.095 86.73 139.918 86.73C143.13 86.73 146.221 85.5537 148.612 83.4124L148.613 83.4118C148.633 83.3932 148.654 83.3745 148.675 83.3557C149.643 84.335 150.786 85.137 152.055 85.7185L152.077 85.7285L152.099 85.7374L152.733 85.9921L152.754 86.0004L152.775 86.0077C153.646 86.3131 155.043 86.7269 156.866 86.7269C160.078 86.7269 163.165 85.5506 165.555 83.4131C165.57 83.4006 165.584 83.388 165.598 83.3754C166.564 84.3438 167.699 85.139 168.958 85.7179L168.98 85.7282L169.003 85.7374L169.638 85.9921L169.658 86.0004L169.679 86.0077C170.55 86.3131 171.947 86.7269 173.77 86.7269C176.982 86.7269 180.072 85.5508 182.463 83.4098C184.148 81.9028 185.143 80.2428 185.824 79.1068L185.84 79.0813L185.841 79.079L201.435 53.2283L201.438 53.2236L201.548 53.0381C201.55 53.0354 201.552 53.0327 201.553 53.0301C202.423 51.6341 203.424 49.8301 203.822 47.5872C204.687 42.7182 202.334 37.6968 198.059 35.3675Z" fill="#7966FF" stroke="white" stroke-width="2"/>
<path d="M62.8579 12.6511C57.1303 9.74203 51.4059 9.45972 48.8531 9.45972C35.792 9.45972 23.4086 16.3119 16.1958 28.1353C13.2624 32.9223 11.2542 38.366 10.2083 43.7146C7.92163 56.572 11.2511 69.2423 22.0471 75.0604C27.9913 78.3438 34.1118 78.534 36.7605 78.534C50.5766 78.534 59.6739 71.0251 63.8295 66.8027C72.5462 57.6982 74.4863 47.8449 75.1887 43.9048C78.6574 24.3823 69.3528 16.0327 62.8579 12.6511ZM50.0939 60.8404H31.1165L39.2453 43.0579C36.5718 41.4653 35.1144 38.3568 35.7518 34.7849C36.677 29.5867 41.6743 25.3766 46.913 25.3766C52.1516 25.3766 55.6513 29.5898 54.7292 34.7849C54.0948 38.3568 51.5327 41.4653 48.293 43.0579L50.0939 60.8404Z" fill="white"/>
<path d="M98.1018 29.8262C99.4015 28.7307 100.587 27.7303 102.171 27.7303C104.139 27.7303 105.336 29.1112 104.962 31.207C104.69 32.7321 103.514 33.6834 102.23 34.6838L97.1952 38.6852L102.208 46.6851C102.768 47.5903 103.381 48.7319 103.161 49.9716C103.077 50.4472 102.824 51.0671 102.499 51.5427C102.044 52.2086 100.921 53.3992 98.9992 53.3992C97.0312 53.3992 96.2422 52.1626 95.4408 50.7326L89.6668 41.0634L88.3641 48.3974C88.0113 50.1127 87.6524 51.5887 86.0248 52.6351C85.3162 53.1108 84.5457 53.3961 83.7288 53.3961C83.3451 53.3961 82.4973 53.301 81.7516 52.6351C80.4984 51.5887 80.6779 50.2999 80.9254 48.6337L85.7185 21.679C86.0805 19.9176 86.3559 18.6319 87.9928 17.5364C88.7509 17.0608 89.5214 16.7754 90.3847 16.7754C90.722 16.7754 91.5203 16.8705 92.2041 17.3462C93.5625 18.3465 93.3954 19.8225 93.1386 21.5379L90.4961 36.3961L98.1018 29.8262Z" fill="white"/>
<path d="M116.764 42.9231C116.844 43.8284 116.937 44.1138 117.147 44.5434C117.571 45.3995 118.985 47.1639 121.916 47.1639C122.875 47.1639 123.949 47.0688 125.935 46.1636C127.188 45.5928 128.565 44.8778 129.862 44.8778C130.103 44.8778 130.861 44.9269 131.418 45.3074C131.799 45.5928 132.569 46.4029 132.297 47.928C132.071 48.9284 131.573 49.8336 129.723 51.0703C125.969 53.5466 121.179 53.7369 120.028 53.7369C118.348 53.7369 114.499 53.4976 111.575 50.4995C108.326 47.167 108.78 42.4506 109.102 40.6401C109.365 39.1641 110.213 35.7334 113.199 32.45C117.268 27.9269 122.126 27.353 124.144 27.353C125.777 27.353 129.079 27.6875 131.74 30.5444C133.563 32.45 134.364 34.687 134.392 37.4978C134.407 38.4982 134.293 39.4034 134.225 39.7839C134.157 40.1645 134.002 41.309 132.978 42.2143C132.535 42.5488 132.108 42.785 131.61 42.8802C131.257 42.9753 130.824 42.9753 129.976 42.8802L116.764 42.9231ZM127.256 37.9244C127.238 37.4948 127.216 37.0682 127.142 36.6847C127.058 36.0648 126.864 34.733 125.425 33.9229C125.075 33.7327 124.326 33.3522 123.222 33.3522C121.396 33.3522 119.521 34.4476 118.376 36.0188C117.881 36.6386 117.581 37.2554 117.318 37.9244H127.256Z" fill="white"/>
<path d="M193.96 42.7871C193.388 42.5017 192.818 42.4526 192.531 42.4526C190.321 42.4526 189.17 44.0729 188.731 44.6436C188.415 45.0732 188.146 45.4998 187.877 45.9294L181.611 56.5989L179.383 46.1687C179.083 44.883 178.777 43.6433 177.703 42.9313C177.068 42.4557 176.49 42.4557 176.156 42.4557C176.063 42.4557 175.97 42.4588 175.874 42.468C175.778 42.4588 175.695 42.4557 175.626 42.4557C173.417 42.4557 172.266 44.0759 171.827 44.6467C171.511 45.0763 171.242 45.5028 170.973 45.9324L164.707 56.602L162.479 46.1718C162.179 44.886 161.872 43.6463 160.799 42.9344C160.164 42.4588 159.586 42.4588 159.251 42.4588C159.152 42.4588 159.05 42.4649 158.951 42.471C158.846 42.4618 158.753 42.4588 158.679 42.4588C156.47 42.4588 155.319 44.079 154.879 44.6498C154.564 45.0794 154.294 45.5059 154.025 45.9355L147.759 56.6051L145.531 46.1749C145.231 44.8891 144.925 43.6494 143.851 42.9375C143.217 42.4618 142.638 42.4618 142.304 42.4618C140.862 42.4618 139.222 43.318 138.362 44.6528C137.972 45.2236 137.888 45.7023 137.836 45.9877C137.65 47.0341 137.882 47.8933 138.105 48.7985L142.319 65.6083L138.377 71.8468C138.247 72.0371 137.161 73.5622 136.957 74.7037C136.719 76.0355 137.427 77.4655 138.668 78.0362C139.073 78.1774 139.442 78.2756 139.921 78.2756C141.026 78.2756 142.112 77.846 142.91 77.131C143.709 76.416 144.272 75.4156 144.816 74.5104L156.603 54.9726L159.267 65.6053L155.325 71.8438C155.195 72.034 154.109 73.5591 153.904 74.7006C153.666 76.0324 154.375 77.4624 155.616 78.0331C156.024 78.1743 156.389 78.2725 156.869 78.2725C157.973 78.2725 159.06 77.8429 159.858 77.1279C160.656 76.4129 161.219 75.4125 161.764 74.5073L173.516 55.0278L176.168 65.6022L172.226 71.8407C172.096 72.0309 171.01 73.556 170.806 74.6976C170.567 76.0293 171.276 77.4593 172.517 78.0301C172.925 78.1712 173.29 78.2694 173.77 78.2694C174.875 78.2694 175.961 77.8398 176.759 77.1248C177.557 76.4099 178.121 75.4095 178.665 74.5042L194.121 48.8814C194.267 48.596 195.226 47.2611 195.43 46.1196C195.659 44.8339 195.096 43.4039 193.96 42.7871Z" fill="white"/>
<path d="M126.508 63.7595H81.6649C79.7712 63.7595 78.5087 62.2375 78.8398 60.3595C79.174 58.4815 80.978 56.9595 82.8717 56.9595H127.714C129.608 56.9595 130.871 58.4815 130.539 60.3595C130.205 62.2375 128.401 63.7595 126.508 63.7595Z" fill="white"/>
</svg>
